/* XPM */
static char *grey_brick[] = {
/* columns rows colors chars-per-pixel */
"32 24 53 1 ",
"  c #3E3F36",
". c #3F403D",
"X c #41443A",
"o c #454544",
"O c #464846",
"+ c #4A4C43",
"@ c #4D4E4B",
"# c #4E5044",
"$ c #4E5049",
"% c #52534D",
"& c #57594E",
"* c #545453",
"= c #575854",
"- c #595A54",
"; c #575759",
": c #575859",
"> c #5C5C5B",
", c #5F615C",
"< c #61625E",
"1 c #5E5E60",
"2 c #5F6160",
"3 c #636463",
"4 c #686767",
"5 c #676865",
"6 c #696A67",
"7 c #676769",
"8 c #6C6C6B",
"9 c #706F6E",
"0 c #6F706B",
"q c #71726E",
"w c #6E6F70",
"e c #747473",
"r c #777975",
"t c #787876",
"y c #777779",
"u c #77787A",
"i c #7C7C7B",
"p c #807F7E",
"a c #7F817F",
"s c #81817F",
"d c #7E7E80",
"f c #848483",
"g c #888785",
"h c #898987",
"j c #878888",
"k c #8C8C8B",
"l c #8F908B",
"z c #91918F",
"x c #949392",
"c c #989694",
"v c #999996",
"b c #9E9D9B",
"n c #A0A09D",
/* pixels */
"*>:,3X<<66066%06<433<>8499p8&qe8",
"XXX++.#%#X&<-X#X++%@%@&&@%&&###-",
":$=544669-99p6668*88899e00pqttpp",
":$:24qqeq&90p6p06*8p988q0qp9qtfp",
";@1348eeq#90eppeq*qe94qp06rittii",
".@*==o-<<&,<<-446<<@<@*>*&-<-<<6",
"3133<@etq0rps<pypqppp*p9rigs<tgf",
"33333*9eqppph<fgppp8e%eeehgs<qgf",
"327>3*87ietts3pphpisi3eriiig5qis",
"*O@**O@@>$9987eer<tqq<55:%34qq60",
"7*7eweewt-flzjjkfqchxklhf3fxxxzz",
"e7uudyeyt4fkzkjkgtcgzkhhf4klklcx",
"e>eeeee8e3ifsgfgfezzzcxjd7ffjhvx",
"77343@7794yie8yftrszfflfeweu83ad",
"dfiuy>ufeysedekzhzzvxjbnbzxjdexz",
"ufkfd3ijppsfpezkzlzzlgvnvzxkdwzj",
"ppgg914eeete83ifgffpypzlklkpy4jf",
"434e91141;>3>17eq>eteeghd4ite9ee",
"739hhsyee:4eeydgf8fjhyjbnexckjiy",
"O-4gkgyee%7ypuudp3fkfiznnekczgf7",
"**>eye443O>8w7eey2ydfghxkwkkje8e",
"11399<;<;@***o*33>3e8>we8ujfe;77",
"373791;;1;*12@:1178ee3edijkjw@ee",
"11373;;;;;**>O;:178ew;;eueddw@ud"
};
